<?xml version="1.0" encoding="UTF-8" standalone="no"?><svg xmlns="http://www.w3.org/2000/svg" xmlns:xlink="http://www.w3.org/1999/xlink" contentStyleType="text/css" height="467px" preserveAspectRatio="none" style="width:825px;height:467px;background:#FFFFFF;" version="1.1" viewBox="0 0 825 467" width="825px" zoomAndPan="magnify"><defs/><g><line style="stroke:#181818;stroke-width:0.5;stroke-dasharray:5.0,5.0;" x1="67" x2="67" y1="36.2969" y2="431.8906"/><line style="stroke:#181818;stroke-width:0.5;stroke-dasharray:5.0,5.0;" x1="200" x2="200" y1="36.2969" y2="431.8906"/><line style="stroke:#181818;stroke-width:0.5;stroke-dasharray:5.0,5.0;" x1="462.5" x2="462.5" y1="36.2969" y2="431.8906"/><line style="stroke:#181818;stroke-width:0.5;stroke-dasharray:5.0,5.0;" x1="570.5" x2="570.5" y1="36.2969" y2="431.8906"/><line style="stroke:#181818;stroke-width:0.5;stroke-dasharray:5.0,5.0;" x1="737.5" x2="737.5" y1="36.2969" y2="431.8906"/><rect fill="#E2E2F0" height="30.2969" rx="2.5" ry="2.5" style="stroke:#181818;stroke-width:0.5;" width="125" x="5" y="5"/><text fill="#000000" font-family="sans-serif" font-size="14" lengthAdjust="spacing" textLength="111" x="12" y="24.9951">GP2GP Adaptor</text><rect fill="#E2E2F0" height="30.2969" rx="2.5" ry="2.5" style="stroke:#181818;stroke-width:0.5;" width="125" x="5" y="430.8906"/><text fill="#000000" font-family="sans-serif" font-size="14" lengthAdjust="spacing" textLength="111" x="12" y="450.8857">GP2GP Adaptor</text><rect fill="#E2E2F0" height="30.2969" rx="2.5" ry="2.5" style="stroke:#181818;stroke-width:0.5;" width="120" x="140" y="5"/><text fill="#000000" font-family="sans-serif" font-size="14" lengthAdjust="spacing" textLength="106" x="147" y="24.9951">GPC Consumer</text><rect fill="#E2E2F0" height="30.2969" rx="2.5" ry="2.5" style="stroke:#181818;stroke-width:0.5;" width="120" x="140" y="430.8906"/><text fill="#000000" font-family="sans-serif" font-size="14" lengthAdjust="spacing" textLength="106" x="147" y="450.8857">GPC Consumer</text><rect fill="#E2E2F0" height="30.2969" rx="2.5" ry="2.5" style="stroke:#181818;stroke-width:0.5;" width="43" x="441.5" y="5"/><text fill="#000000" font-family="sans-serif" font-size="14" lengthAdjust="spacing" textLength="29" x="448.5" y="24.9951">SDS</text><rect fill="#E2E2F0" height="30.2969" rx="2.5" ry="2.5" style="stroke:#181818;stroke-width:0.5;" width="43" x="441.5" y="430.8906"/><text fill="#000000" font-family="sans-serif" font-size="14" lengthAdjust="spacing" textLength="29" x="448.5" y="450.8857">SDS</text><rect fill="#E2E2F0" height="30.2969" rx="2.5" ry="2.5" style="stroke:#181818;stroke-width:0.5;" width="152" x="494.5" y="5"/><text fill="#000000" font-family="sans-serif" font-size="14" lengthAdjust="spacing" textLength="138" x="501.5" y="24.9951">Spine Secure Proxy</text><rect fill="#E2E2F0" height="30.2969" rx="2.5" ry="2.5" style="stroke:#181818;stroke-width:0.5;" width="152" x="494.5" y="430.8906"/><text fill="#000000" font-family="sans-serif" font-size="14" lengthAdjust="spacing" textLength="138" x="501.5" y="450.8857">Spine Secure Proxy</text><rect fill="#E2E2F0" height="30.2969" rx="2.5" ry="2.5" style="stroke:#181818;stroke-width:0.5;" width="163" x="656.5" y="5"/><text fill="#000000" font-family="sans-serif" font-size="14" lengthAdjust="spacing" textLength="149" x="663.5" y="24.9951">GP Connect Provider</text><rect fill="#E2E2F0" height="30.2969" rx="2.5" ry="2.5" style="stroke:#181818;stroke-width:0.5;" width="163" x="656.5" y="430.8906"/><text fill="#000000" font-family="sans-serif" font-size="14" lengthAdjust="spacing" textLength="149" x="663.5" y="450.8857">GP Connect Provider</text><polygon fill="#181818" points="188,63.4297,198,67.4297,188,71.4297,192,67.4297" style="stroke:#181818;stroke-width:1.0;"/><line style="stroke:#181818;stroke-width:1.0;" x1="67.5" x2="194" y1="67.4297" y2="67.4297"/><text fill="#000000" font-family="sans-serif" font-size="13" lengthAdjust="spacing" textLength="68" x="74.5" y="62.3638">Interaction</text><polygon fill="#181818" points="451,92.5625,461,96.5625,451,100.5625,455,96.5625" style="stroke:#181818;stroke-width:1.0;"/><line style="stroke:#181818;stroke-width:1.0;" x1="200" x2="457" y1="96.5625" y2="96.5625"/><text fill="#000000" font-family="sans-serif" font-size="13" lengthAdjust="spacing" textLength="78" x="207" y="91.4966">GET /Device</text><polygon fill="#181818" points="211,121.6953,201,125.6953,211,129.6953,207,125.6953" style="stroke:#181818;stroke-width:1.0;"/><line style="stroke:#181818;stroke-width:1.0;stroke-dasharray:2.0,2.0;" x1="205" x2="462" y1="125.6953" y2="125.6953"/><text fill="#000000" font-family="sans-serif" font-size="13" lengthAdjust="spacing" textLength="75" x="217" y="120.6294">FHIR Bundle</text><polygon fill="#181818" points="451,150.8281,461,154.8281,451,158.8281,455,154.8281" style="stroke:#181818;stroke-width:1.0;"/><line style="stroke:#181818;stroke-width:1.0;" x1="200" x2="457" y1="154.8281" y2="154.8281"/><text fill="#000000" font-family="sans-serif" font-size="13" lengthAdjust="spacing" textLength="90" x="207" y="149.7622">GET /Endpoint</text><polygon fill="#181818" points="211,179.9609,201,183.9609,211,187.9609,207,183.9609" style="stroke:#181818;stroke-width:1.0;"/><line style="stroke:#181818;stroke-width:1.0;stroke-dasharray:2.0,2.0;" x1="205" x2="462" y1="183.9609" y2="183.9609"/><text fill="#000000" font-family="sans-serif" font-size="13" lengthAdjust="spacing" textLength="75" x="217" y="178.895">FHIR Bundle</text><line style="stroke:#181818;stroke-width:1.0;" x1="200" x2="242" y1="213.0938" y2="213.0938"/><line style="stroke:#181818;stroke-width:1.0;" x1="242" x2="242" y1="213.0938" y2="226.0938"/><line style="stroke:#181818;stroke-width:1.0;" x1="201" x2="242" y1="226.0938" y2="226.0938"/><polygon fill="#181818" points="211,222.0938,201,226.0938,211,230.0938,207,226.0938" style="stroke:#181818;stroke-width:1.0;"/><text fill="#000000" font-family="sans-serif" font-size="13" lengthAdjust="spacing" textLength="249" x="207" y="208.0278">Use SDS response to build SSP request</text><polygon fill="#181818" points="558.5,251.2266,568.5,255.2266,558.5,259.2266,562.5,255.2266" style="stroke:#181818;stroke-width:1.0;"/><line style="stroke:#181818;stroke-width:1.0;" x1="200" x2="564.5" y1="255.2266" y2="255.2266"/><text fill="#000000" font-family="sans-serif" font-size="13" lengthAdjust="spacing" textLength="99" x="207" y="250.1606">GPC Interaction</text><polygon fill="#181818" points="726,280.3594,736,284.3594,726,288.3594,730,284.3594" style="stroke:#181818;stroke-width:1.0;"/><line style="stroke:#181818;stroke-width:1.0;" x1="570.5" x2="732" y1="284.3594" y2="284.3594"/><text fill="#000000" font-family="sans-serif" font-size="13" lengthAdjust="spacing" textLength="99" x="577.5" y="279.2935">GPC Interaction</text><polygon fill="#181818" points="581.5,309.4922,571.5,313.4922,581.5,317.4922,577.5,313.4922" style="stroke:#181818;stroke-width:1.0;"/><line style="stroke:#181818;stroke-width:1.0;stroke-dasharray:2.0,2.0;" x1="575.5" x2="737" y1="313.4922" y2="313.4922"/><text fill="#000000" font-family="sans-serif" font-size="13" lengthAdjust="spacing" textLength="28" x="587.5" y="308.4263">FHIR</text><polygon fill="#181818" points="211,338.625,201,342.625,211,346.625,207,342.625" style="stroke:#181818;stroke-width:1.0;"/><line style="stroke:#181818;stroke-width:1.0;stroke-dasharray:2.0,2.0;" x1="205" x2="569.5" y1="342.625" y2="342.625"/><text fill="#000000" font-family="sans-serif" font-size="13" lengthAdjust="spacing" textLength="28" x="217" y="337.5591">FHIR</text><line style="stroke:#181818;stroke-width:1.0;" x1="200" x2="242" y1="371.7578" y2="371.7578"/><line style="stroke:#181818;stroke-width:1.0;" x1="242" x2="242" y1="371.7578" y2="384.7578"/><line style="stroke:#181818;stroke-width:1.0;" x1="201" x2="242" y1="384.7578" y2="384.7578"/><polygon fill="#181818" points="211,380.7578,201,384.7578,211,388.7578,207,384.7578" style="stroke:#181818;stroke-width:1.0;"/><text fill="#000000" font-family="sans-serif" font-size="13" lengthAdjust="spacing" textLength="117" x="207" y="366.6919">Rewrite FHIR URLs</text><polygon fill="#181818" points="78.5,409.8906,68.5,413.8906,78.5,417.8906,74.5,413.8906" style="stroke:#181818;stroke-width:1.0;"/><line style="stroke:#181818;stroke-width:1.0;stroke-dasharray:2.0,2.0;" x1="72.5" x2="199" y1="413.8906" y2="413.8906"/><text fill="#000000" font-family="sans-serif" font-size="13" lengthAdjust="spacing" textLength="28" x="84.5" y="408.8247">FHIR</text><!--MD5=[ce7469088af2ee4c7aeb065c0523f76a]
@startuml
participant "GP2GP Adaptor" as gp2gp
participant "GPC Consumer" as consumer
participant "SDS" as sds
participant "Spine Secure Proxy" as ssp
participant "GP Connect Provider" as provider

gp2gp -> consumer: Interaction
consumer -> sds: GET /Device
sds - -> consumer: FHIR Bundle
consumer -> sds: GET /Endpoint
sds - -> consumer: FHIR Bundle
consumer -> consumer: Use SDS response to build SSP request
consumer -> ssp: GPC Interaction
ssp -> provider: GPC Interaction
provider - -> ssp: FHIR
ssp - -> consumer: FHIR
consumer -> consumer: Rewrite FHIR URLs
consumer - -> gp2gp: FHIR
@enduml

PlantUML version 1.2022.4beta2(Unknown compile time)
(GPL source distribution)
Java Runtime: Java(TM) SE Runtime Environment
JVM: Java HotSpot(TM) 64-Bit Server VM
Default Encoding: UTF-8
Language: en
Country: US
--></g></svg>